Coordinates
version=1
nRows=13
nColumns=40
inDegrees=yes

Units are S.I. units (second, meters, Newtons, ...)
Angles are in degrees.

endheader
time	pelvis_tilt	pelvis_list	pelvis_rotation	pelvis_tx	pelvis_ty	pelvis_tz	hip_flexion_r	hip_adduction_r	hip_rotation_r	knee_angle_r	knee_angle_r_beta	ankle_angle_r	subtalar_angle_r	mtp_angle_r	hip_flexion_l	hip_adduction_l	hip_rotation_l	knee_angle_l	knee_angle_l_beta	ankle_angle_l	subtalar_angle_l	mtp_angle_l	lumbar_extension	lumbar_bending	lumbar_rotation	arm_flex_r	arm_add_r	arm_rot_r	elbow_flex_r	pro_sup_r	wrist_flex_r	wrist_dev_r	arm_flex_l	arm_add_l	arm_rot_l	elbow_flex_l	pro_sup_l	wrist_flex_l	wrist_dev_l
     31.81250000	     -3.94518903	     -4.66787261	     11.66785350	      1.03484507	      0.92509662	      0.50104948	      2.28067051	      1.98329564	    -16.26087949	     14.06718033	     14.06718033	     16.49106595	     -2.62284393	     -2.02839674	     24.58608881	     -5.73613594	      3.35779975	     22.83443722	     22.83443722	      6.04815767	     -9.38060511	     -1.46812192	     -6.99814119	      2.78847783	      4.02077417	     61.70457858	    -17.90605495	      2.02918497	    102.61045670	     44.35555001	      0.00000000	      0.00000000	    -11.43850545	    -16.02243098	     26.20169791	     30.54651142	     42.95876011	      0.00000000	      0.00000000
     31.83542857	     -4.06274305	     -4.77526049	     11.20918335	      1.03446501	      0.92550211	      0.49574862	      2.11857458	      1.69769744	    -16.01868326	     14.09498443	     14.09498443	     16.20862770	     -2.40428669	     -1.92585544	     24.37444131	     -5.62704635	      3.12297157	     23.01058630	     23.01058630	      6.48770033	     -9.68814711	     -1.59817978	     -6.88817724	      2.94426839	      3.79136448	     61.51359223	    -17.90846327	      2.02453883	    102.43013547	     44.36142496	      0.00000000	      0.00000000	    -10.98912046	    -16.16052007	     26.15100155	     30.69845692	     42.97377014	      0.00000000	      0.00000000
     31.85835714	     -3.94317881	     -4.80885385	     10.57295288	      1.03415583	      0.92628839	      0.49065113	      1.64417794	      1.32392718	    -15.94452920	     14.04003009	     14.04003009	     16.13387122	     -1.35370262	     -1.62307552	     24.01192277	     -5.54362723	      2.75480156	     23.51584814	     23.51584814	      7.04426405	    -10.26260234	     -1.32434242	     -6.86011430	      2.93473895	      4.48275106	     60.82632100	    -18.24737794	      1.39714590	     99.50288144	     44.48138715	      0.00000000	      0.00000000	    -10.07366147	    -16.56925553	     25.93011549	     31.74212880	     43.04421288	      0.00000000	      0.00000000
     31.88128571	     -3.96821854	     -4.84747019	      9.96956508	      1.03354752	      0.92703560	      0.48545970	      1.66304084	      0.81930809	    -15.86778844	     14.58910094	     14.58910094	     16.04441773	     -0.58894188	     -1.31480312	     23.60149263	     -5.43868953	      2.26525033	     23.58997660	     23.58997660	      7.62601153	    -10.43549928	     -0.98642136	     -6.77099038	      2.97002846	      4.31947119	     60.34515666	    -17.76397805	      0.88646406	     97.03341869	     44.58768486	      0.00000000	      0.00000000	     -9.68183846	    -16.86504308	     25.79786635	     32.72442607	     43.11151229	      0.00000000	      0.00000000
     31.90421429	     -3.97350626	     -4.95793493	      9.33677171	      1.03279895	      0.92789252	      0.48029259	      1.84392882	      0.34654184	    -15.68768560	     15.41037680	     15.41037680	     15.89809174	     -0.02321569	     -0.97295302	     23.16031215	     -5.43285497	      1.71539080	     23.61383626	     23.61383626	      8.22747808	    -10.44672805	     -0.61610244	     -6.71573410	      3.08125882	      3.86670153	     59.69915642	    -16.86663346	      0.35417811	     93.95692018	     44.72411477	      0.00000000	      0.00000000	     -9.47643346	    -17.16468022	     25.46546376	     33.87402860	     43.25405132	      0.00000000	      0.00000000
     31.92714286	     -3.99982750	     -5.03424212	      8.65628644	      1.03186593	      0.92886558	      0.47520952	      2.31097749	     -0.20978338	    -15.27051152	     16.65739995	     16.65739995	     15.50763040	      0.06826810	     -1.17071339	     22.59131847	     -5.40671317	      1.03454862	     23.34341352	     23.34341352	      8.60431013	    -10.41138184	     -0.65768291	     -6.69969917	      3.13212559	      4.02264490	     58.32515804	    -17.15541650	      0.05802860	     92.10548272	     44.79306336	      0.00000000	      0.00000000	     -8.59149339	    -17.28709916	     25.17727956	     34.32671717	     43.32981596	      0.00000000	      0.00000000
     31.95007143	     -4.03920920	     -5.16157030	      7.95023456	      1.03068331	      0.92978954	      0.47018843	      3.13427146	     -0.79950639	    -14.84500915	     18.47131266	     18.47131266	     15.03908083	      0.01145701	     -1.69166583	     22.07243506	     -5.44565824	      0.29205365	     23.08944474	     23.08944474	      8.97315019	    -10.28943093	     -0.77677329	     -6.66886063	      3.24325711	      4.08093581	     56.80640047	    -17.18640314	     -0.48171070	     89.64389331	     44.88893901	      0.00000000	      0.00000000	     -7.60096584	    -17.30674199	     24.85139091	     34.67498484	     43.41698531	      0.00000000	      0.00000000
     31.97300000	     -4.06676858	     -5.25628687	      7.21205256	      1.02931035	      0.93073458	      0.46524745	      4.25713421	     -1.47475378	    -14.31515493	     20.80676964	     20.80676964	     14.43851236	     -0.30953959	     -2.42549895	     21.50799917	     -5.45795984	     -0.51227687	     22.76537396	     22.76537396	      9.34944523	    -10.10518118	     -0.93461237	     -6.70203768	      3.29520060	      4.01849095	     54.88922793	    -17.11471509	     -0.89793800	     87.24264182	     44.97540118	      0.00000000	      0.00000000	     -6.54199824	    -17.26991545	     24.54323367	     34.87392875	     43.49520210	      0.00000000	      0.00000000
     31.99592857	     -4.09736403	     -5.49170191	      6.48787749	      1.02765736	      0.93143547	      0.46050147	      5.71356090	     -1.99044152	    -13.58983006	     23.59229925	     23.59229925	     13.38473201	     -1.17165377	     -4.19359769	     21.15217609	     -5.64763708	     -1.32989494	     22.71940144	     22.71940144	      9.71309734	     -9.85483639	     -1.26764195	     -6.65275076	      3.54733596	      3.72390864	     53.21584573	    -16.30839963	     -1.97111828	     83.08147402	     45.14471862	      0.00000000	      0.00000000	     -5.28726312	    -16.97888163	     23.87951845	     34.37124506	     43.66637372	      0.00000000	      0.00000000
     32.01885714	     -4.10917206	     -5.48387128	      5.71861920	      1.02582537	      0.93205024	      0.45578238	      7.59616523	     -2.85360460	    -12.85556969	     27.22991599	     27.22991599	     12.61033836	     -2.04133580	     -5.29745324	     20.60352218	     -5.56223951	     -2.23208913	     22.41327729	     22.41327729	     10.04525599	     -9.62715599	     -1.42773956	     -6.84495712	      3.52271323	      3.53546234	     50.62129191	    -16.15693283	     -1.97859572	     80.99983664	     45.20310627	      0.00000000	      0.00000000	     -3.97678601	    -16.84456013	     23.51646583	     34.44394214	     43.75286914	      0.00000000	      0.00000000
     32.04178571	     -4.14240779	     -5.59780770	      4.95449576	      1.02379091	      0.93219274	      0.45135569	      9.67407874	     -3.43695698	    -11.82732726	     30.90279701	     30.90279701	     10.59539560	     -4.05136528	     -9.27023804	     20.35052200	     -5.64507220	     -3.12203762	     22.53981640	     22.53981640	     10.51335090	     -9.38065231	     -1.74996676	     -6.89549985	      3.64648428	      3.05575337	     48.43660401	    -15.26234989	     -2.43518761	     76.53128492	     45.35415733	      0.00000000	      0.00000000	     -2.31226166	    -15.87458983	     20.61552095	     32.72774676	     44.39824972	      0.00000000	      0.00000000
     32.06471429	     -4.15314660	     -5.52790255	      4.21760513	      1.02157537	      0.93196412	      0.44704955	     12.15031720	     -4.26629511	    -10.87837300	     35.42366683	     35.42366683	      9.79443373	     -5.32187223	     -9.81763549	     20.11342783	     -5.51272013	     -3.95362730	     22.74003009	     22.74003009	     10.94565438	     -9.30075362	     -2.04147405	     -7.14564215	      3.54197600	      2.87129216	     45.23689992	    -15.13506542	     -2.30958730	     74.37578114	     45.40656716	      0.00000000	      0.00000000	     -0.66159534	    -15.77650124	     20.42129983	     32.85641706	     44.46130589	      0.00000000	      0.00000000
     32.08764286	     -4.14666669	     -5.57751852	      3.51016656	      1.01929895	      0.93128658	      0.44313025	     14.75437379	     -4.71348199	     -9.61789199	     40.01265532	     40.01265532	      8.93191751	     -7.20661372	     -9.74163303	     20.11436659	     -5.56409795	     -4.73412013	     23.36373734	     23.36373734	     11.52704352	     -9.18819459	     -2.43776470	     -7.29289236	      3.55625037	      2.89050058	     41.98885088	    -14.95012970	     -2.47753220	     70.66735805	     45.51854636	      0.00000000	      0.00000000	      1.58066636	    -15.35599728	     20.26491612	     31.91678641	     44.54543250	      0.00000000	      0.00000000
